<?xml version="1.0" encoding="UTF-8" standalone="no"?> <svg id="icons" xmlns="http://www.w3.org/2000/svg" viewBox="0 0 340 340"><title>23_half face AI cyborg</title><path d="M113.867,89.587l-13.328,9.426a8.331,8.331,0,0,0-3.514,7.1l.563,15.756c5.959,1.425,12.242.469,18.721-1.924Z" style="fill:#3d4165"/><path d="M97.746,126.287a8.327,8.327,0,0,0,3.82,6.709L118.221,143.7l-1.912-23.76-18.721,1.924Z" style="fill:#3d4165"/><path d="M86.734,280.933A7,7,0,0,1,81.488,269.3,47.47,47.47,0,0,0,92.9,244.63l.54-3.732a61.346,61.346,0,0,1,29.264-43.99L144.2,184.016a7,7,0,1,1,7.2,12l-21.489,12.893A47.4,47.4,0,0,0,107.3,242.9l-.54,3.732a61.434,61.434,0,0,1-14.774,31.93A6.985,6.985,0,0,1,86.734,280.933Z" style="fill:#3d4165"/><path d="M133.921,231.866c-9.078,14.319-30.8,17.407-30.8,17.407-5.737,1.449-10.774,5.838-16.523,8.852L39,330h62.222L170,312.156V244.672Z" style="fill:#3d4165"/><path d="M153.928,240.484s-18.571,26.344-24.073,56.836h17.891S158.439,261.653,168.6,242.3Z" style="fill:#666689"/><path d="M108.919,318.487a143.252,143.252,0,0,1-30.612-22.216l9.941-13.107c8.77,9.39,17.471,16.568,29.02,22.113Z" style="fill:#666689"/><path d="M107.205,256.71a7.3,7.3,0,0,0,10.726,2.377l18.7-13.718a6.836,6.836,0,0,0,.528-10.593l-3.235-2.91s-13.153,7.764-30.8,17.407Z" style="fill:#a3a3c6"/><path d="M133.921,162.4l12.473,78.091c5.556,2.312,13.211,4.184,23.435,4.184V162.4Z" style="fill:#a3a3c6"/><path d="M169.829,223.024c-18.91-.443-25.5-6.917-25.693-7.114a3.478,3.478,0,0,0-1.834-1.043l1.491,9.335c4.565,2.553,12.7,5.543,26.036,5.825Z" style="fill:#3d4165"/><path d="M146.4,162.4H133.921s.688,40.581,0,69.469c0,0,3.5,4.882,12.475,8.618Z" style="fill:#3d4165"/><path d="M169.829,162.4h36.079s-.688,40.581,0,69.469c0,0,39.9,23.55,73.934,39.565a27.913,27.913,0,0,1,15.192,18.486A189.978,189.978,0,0,1,300.825,330h-131Z" style="fill:#ffcad4"/><path d="M205.908,231.866c-.688-28.888,0-69.469,0-69.469H169.829v49.2Z" style="fill:#ef91a3"/><path d="M134.207,191.587,170,211.694V162.4H133.921S134.139,175.223,134.207,191.587Z" style="fill:#3d4165"/><path d="M224.878,94.528l10.3-2.761a8.051,8.051,0,0,1,10.145,7.942,98.112,98.112,0,0,1-3.174,23.115c-4.577,16.645-21.638,16.437-21.638,16.437Z" style="fill:#ef91a3"/><path d="M170,13.816s14.993-1.2,38.018,3.175a50.281,50.281,0,0,0,25.879-1.8c5.565-1.934,11.467-4.769,15.813-8.859,0,0,5.206,28.305-16.268,37.74l16.823,2.6S245.806,62.62,227.586,70.1c0,0,0,42.869-3.9,74.783a23.2,23.2,0,0,1-5.918,12.828,204.447,204.447,0,0,1-26.752,24.716,25.827,25.827,0,0,1-15.516,5.125h-5.671Z" style="fill:#ffcad4"/><path d="M170,13.816s-48.046-.362-56.381,55.479a47.93,47.93,0,0,0-.5,7.514c.083,9.733.528,37.774,2.895,60.353a36.823,36.823,0,0,0,5.378,15.692,112.906,112.906,0,0,0,27.863,30.555,21.664,21.664,0,0,0,12.868,4.146h7.7Z" style="fill:#e4e4ff"/><path d="M131.117,30.93A228.262,228.262,0,0,0,134.139,71a14.265,14.265,0,0,0,14.033,11.789h21.76L170,13.816S147.935,13.657,131.117,30.93Z" style="fill:#a3a3c6"/><path d="M86.6,258.125c-8.741,4.581-17.87,9.192-26.613,13.306A27.908,27.908,0,0,0,44.8,289.917,189.972,189.972,0,0,0,39,330C98.948,313.7,89.612,268.5,86.6,258.125Z" style="fill:#e4e4ff"/><path d="M101.511,328.2q-.156.888-.285,1.8H170V312.156a22.258,22.258,0,0,0-22.83-22.226l-.617.016C124.426,290.58,105.332,306.394,101.511,328.2Z" style="fill:#e4e4ff"/><rect x="130.791" y="104.848" width="24.556" height="10.526" rx="5.263" style="fill:#666689"/><path d="M197.073,296.8a18.284,18.284,0,0,1-9.482-2.662,3.5,3.5,0,1,1,3.623-5.989,11.275,11.275,0,0,0,10.943.437l25.786-12.919a3.5,3.5,0,1,1,3.135,6.258l-25.786,12.919A18.329,18.329,0,0,1,197.073,296.8Z" style="fill:#ef91a3"/><path d="M169.86,155.952h-15.8a3.5,3.5,0,0,0,0,7h15.8Z" style="fill:#666689"/><path d="M169.854,162.952h12.8a25.557,25.557,0,0,0,15.616-5.358l3.091-2.4a3.5,3.5,0,1,0-4.3-5.525l-3.09,2.4a18.527,18.527,0,0,1-11.32,3.884h-12.8Z" style="fill:#ef91a3"/><path d="M150.272,51.7a3.5,3.5,0,0,0,3.485,3.219c.094,0,.19,0,.285-.012a3.5,3.5,0,0,0,3.208-3.769c-.657-8.144-1.1-23.361-1.354-34.963a60.631,60.631,0,0,0-6.948,2.522C149.211,29.993,149.64,43.86,150.272,51.7Z" style="fill:#666689"/><circle cx="128.245" cy="313.943" r="3.981" style="fill:#a3a3c6"/><circle cx="151.028" cy="313.943" r="3.981" style="fill:#a3a3c6"/><circle cx="154.537" cy="67.22" r="3.981" style="fill:#666689"/><rect x="191.515" y="105.877" width="11.995" height="7" rx="3.5" transform="translate(306.889 -88.135) rotate(90)" style="fill:#ef91a3"/></svg>